<svg width="84" height="36" viewBox="0 0 84 36" fill="none" xmlns="http://www.w3.org/2000/svg">
<g clip-path="url(#clip0_13212_966)">
<path d="M26.5749 22.623C25.9192 22.623 25.3351 22.5102 24.8228 22.2848C24.3134 22.0565 23.9108 21.7432 23.6151 21.3451C23.3224 20.944 23.1716 20.4814 23.1628 19.9574H25.0775C25.0892 20.177 25.1609 20.3702 25.2926 20.537C25.4273 20.701 25.6059 20.8283 25.8284 20.9191C26.0509 21.0099 26.3012 21.0552 26.5793 21.0552C26.8692 21.0552 27.1253 21.004 27.3478 20.9015C27.5703 20.7991 27.7445 20.6571 27.8704 20.4756C27.9963 20.2941 28.0592 20.0847 28.0592 19.8476C28.0592 19.6075 27.9919 19.3953 27.8572 19.2108C27.7255 19.0235 27.5352 18.8771 27.2863 18.7717C27.0404 18.6663 26.7477 18.6136 26.4081 18.6136H25.5693V17.2172H26.4081C26.695 17.2172 26.9482 17.1674 27.1678 17.0678C27.3903 16.9683 27.563 16.8307 27.686 16.6551C27.8089 16.4765 27.8704 16.2686 27.8704 16.0315C27.8704 15.8061 27.8162 15.6084 27.7079 15.4386C27.6025 15.2659 27.4532 15.1312 27.26 15.0346C27.0697 14.938 26.8472 14.8897 26.5925 14.8897C26.3349 14.8897 26.0992 14.9366 25.8855 15.0302C25.6718 15.121 25.5005 15.2513 25.3717 15.4211C25.2429 15.5909 25.1741 15.79 25.1653 16.0183H23.3429C23.3517 15.5001 23.4995 15.0434 23.7864 14.6482C24.0733 14.253 24.4597 13.9441 24.9457 13.7216C25.4346 13.4962 25.9865 13.3835 26.6013 13.3835C27.2219 13.3835 27.765 13.4962 28.2305 13.7216C28.696 13.947 29.0575 14.2515 29.3152 14.635C29.5757 15.0156 29.7045 15.443 29.7016 15.9173C29.7045 16.4208 29.5479 16.841 29.2317 17.1776C28.9185 17.5143 28.5101 17.728 28.0065 17.8188V17.889C28.6682 17.9739 29.1717 18.2038 29.5172 18.5785C29.8655 18.9503 30.0383 19.4158 30.0354 19.9749C30.0383 20.4873 29.8904 20.9425 29.5918 21.3407C29.2961 21.7388 28.8877 22.0521 28.3666 22.2804C27.8455 22.5088 27.2483 22.623 26.5749 22.623ZM34.4937 22.6317C33.7999 22.6317 33.2026 22.4912 32.702 22.2102C32.2043 21.9262 31.8208 21.5251 31.5515 21.0069C31.2821 20.4858 31.1475 19.8696 31.1475 19.1581C31.1475 18.4643 31.2821 17.8554 31.5515 17.3313C31.8208 16.8073 32.1999 16.3989 32.6888 16.1061C33.1807 15.8134 33.7574 15.667 34.4191 15.667C34.8641 15.667 35.2783 15.7387 35.6618 15.8822C36.0483 16.0227 36.3849 16.2349 36.6718 16.5189C36.9617 16.8029 37.1871 17.1601 37.3481 17.5904C37.5091 18.0179 37.5896 18.5185 37.5896 19.0923V19.6061H31.894V18.4467H35.8287C35.8287 18.1774 35.7701 17.9388 35.653 17.7309C35.5359 17.5231 35.3735 17.3606 35.1656 17.2435C34.9607 17.1235 34.7221 17.0635 34.4498 17.0635C34.1658 17.0635 33.914 17.1293 33.6945 17.2611C33.4778 17.3899 33.308 17.5641 33.1851 17.7836C33.0621 18.0003 32.9992 18.2418 32.9962 18.5082V19.6105C32.9962 19.9442 33.0577 20.2326 33.1807 20.4756C33.3066 20.7186 33.4837 20.9059 33.712 21.0377C33.9404 21.1694 34.2112 21.2353 34.5245 21.2353C34.7323 21.2353 34.9226 21.206 35.0953 21.1475C35.2681 21.0889 35.4159 21.0011 35.5389 20.884C35.6618 20.7669 35.7555 20.6234 35.8199 20.4536L37.5501 20.5678C37.4623 20.9835 37.2822 21.3465 37.01 21.6569C36.7406 21.9643 36.3923 22.2043 35.9648 22.377C35.5403 22.5468 35.05 22.6317 34.4937 22.6317ZM38.8105 25.0294V15.7548H40.6548V16.8878H40.7383C40.8202 16.7063 40.9388 16.5219 41.094 16.3345C41.2521 16.1442 41.457 15.9861 41.7088 15.8602C41.9635 15.7314 42.2797 15.667 42.6573 15.667C43.1491 15.667 43.6029 15.7958 44.0186 16.0534C44.4344 16.3081 44.7666 16.6931 45.0155 17.2084C45.2643 17.7207 45.3888 18.3633 45.3888 19.1362C45.3888 19.8886 45.2673 20.5239 45.0243 21.0421C44.7842 21.5573 44.4563 21.9481 44.0406 22.2146C43.6278 22.478 43.1652 22.6098 42.6529 22.6098C42.2899 22.6098 41.981 22.5498 41.7263 22.4297C41.4746 22.3097 41.2682 22.1589 41.1071 21.9774C40.9461 21.793 40.8232 21.6071 40.7383 21.4197H40.6812V25.0294H38.8105ZM40.6417 19.1274C40.6417 19.5285 40.6973 19.8783 40.8085 20.177C40.9198 20.4756 41.0808 20.7083 41.2916 20.8752C41.5024 21.0391 41.7585 21.1211 42.0601 21.1211C42.3646 21.1211 42.6222 21.0377 42.833 20.8708C43.0438 20.701 43.2033 20.4668 43.3116 20.1682C43.4229 19.8666 43.4785 19.5197 43.4785 19.1274C43.4785 18.738 43.4243 18.3955 43.316 18.0998C43.2077 17.8041 43.0481 17.5729 42.8374 17.406C42.6266 17.2391 42.3675 17.1557 42.0601 17.1557C41.7556 17.1557 41.498 17.2362 41.2872 17.3972C41.0793 17.5582 40.9198 17.7866 40.8085 18.0823C40.6973 18.3779 40.6417 18.7263 40.6417 19.1274ZM51.3303 18.3809V19.852H47.8084V18.3809H51.3303ZM48.4232 15.7548V22.5H46.6359V15.7548H48.4232ZM52.5028 15.7548V22.5H50.7287V15.7548H52.5028ZM57.9064 22.5V17.2215H56.6417C56.2992 17.2215 56.0386 17.3006 55.86 17.4587C55.6815 17.6168 55.5936 17.8041 55.5965 18.0208C55.5936 18.2403 55.6785 18.4263 55.8513 18.5785C56.0269 18.7278 56.2845 18.8024 56.6241 18.8024H58.53V20.0672H56.6241C56.0474 20.0672 55.5482 19.9793 55.1267 19.8037C54.7051 19.628 54.3801 19.3836 54.1518 19.0703C53.9234 18.7541 53.8107 18.3867 53.8136 17.9681C53.8107 17.5289 53.9234 17.144 54.1518 16.8131C54.3801 16.4794 54.7066 16.2203 55.1311 16.0359C55.5585 15.8485 56.062 15.7548 56.6417 15.7548H59.6498V22.5H57.9064ZM53.6204 22.5L55.4955 18.9869H57.2828L55.4121 22.5H53.6204ZM60.426 17.2259V15.7548H66.5388V17.2259H64.3651V22.5H62.5822V17.2259H60.426ZM67.6729 22.5V15.7548H69.5436V18.3721H70.0706L71.9062 15.7548H74.1019L71.7174 19.1011L74.1282 22.5H71.9062L70.2418 20.1067H69.5436V22.5H67.6729ZM77.6885 22.6317C77.0064 22.6317 76.4165 22.4868 75.9188 22.197C75.4241 21.9042 75.042 21.4973 74.7727 20.9762C74.5033 20.4521 74.3687 19.8447 74.3687 19.1538C74.3687 18.457 74.5033 17.8481 74.7727 17.3269C75.042 16.8029 75.4241 16.396 75.9188 16.1061C76.4165 15.8134 77.0064 15.667 77.6885 15.667C78.3707 15.667 78.9591 15.8134 79.4539 16.1061C79.9516 16.396 80.3351 16.8029 80.6044 17.3269C80.8738 17.8481 81.0084 18.457 81.0084 19.1538C81.0084 19.8447 80.8738 20.4521 80.6044 20.9762C80.3351 21.4973 79.9516 21.9042 79.4539 22.197C78.9591 22.4868 78.3707 22.6317 77.6885 22.6317ZM77.6973 21.1826C78.0077 21.1826 78.2667 21.0948 78.4746 20.9191C78.6825 20.7405 78.8391 20.4975 78.9445 20.1901C79.0528 19.8827 79.107 19.5329 79.107 19.1406C79.107 18.7483 79.0528 18.3984 78.9445 18.091C78.8391 17.7836 78.6825 17.5407 78.4746 17.3621C78.2667 17.1835 78.0077 17.0942 77.6973 17.0942C77.3841 17.0942 77.1206 17.1835 76.9069 17.3621C76.6961 17.5407 76.5365 17.7836 76.4282 18.091C76.3228 18.3984 76.2701 18.7483 76.2701 19.1406C76.2701 19.5329 76.3228 19.8827 76.4282 20.1901C76.5365 20.4975 76.6961 20.7405 76.9069 20.9191C77.1206 21.0948 77.3841 21.1826 77.6973 21.1826Z" fill="black"/>
<path d="M4.05384 27.6495C3.6105 27.6495 3.21584 27.4806 2.86984 27.1428C2.52367 26.8051 2.35059 26.4063 2.35059 25.9463V9.05376C2.35059 8.60876 2.52367 8.21268 2.86984 7.86551C3.21584 7.51818 3.6105 7.34451 4.05384 7.34451H17.7978C18.0378 7.34451 18.2408 7.42793 18.4066 7.59476C18.5726 7.76176 18.6556 7.96585 18.6556 8.20701C18.6556 8.44835 18.5726 8.64985 18.4066 8.81151C18.2408 8.97301 18.0378 9.05376 17.7978 9.05376H15.9983V10.3983C15.9983 10.6626 15.885 10.9123 15.6583 11.1475C15.4317 11.3825 15.1842 11.5 14.9158 11.5H7.83759C7.57325 11.5 7.32775 11.3825 7.10109 11.1475C6.87425 10.9123 6.76084 10.6626 6.76084 10.3983V9.05376H4.05384V25.9463H8.66434C8.05884 25.5169 7.59025 25.0018 7.25859 24.401C6.92675 23.8003 6.76084 23.0583 6.76084 22.175V19.0533C6.76084 18.5849 6.92725 18.184 7.26009 17.8505C7.59275 17.5168 7.99609 17.35 8.47009 17.35H14.2893C14.7633 17.35 15.1667 17.5168 15.4993 17.8505C15.832 18.184 15.9983 18.5849 15.9983 19.0533V22.175C15.9983 23.0583 15.8273 23.8003 15.4853 24.401C15.1433 25.0018 14.6716 25.5169 14.0701 25.9463H17.7978C18.0378 25.9463 18.2408 26.0285 18.4066 26.193C18.5726 26.3575 18.6556 26.5606 18.6556 26.8023C18.6556 27.0439 18.5726 27.2455 18.4066 27.407C18.2408 27.5687 18.0378 27.6495 17.7978 27.6495H4.05384ZM11.3643 25.35C12.2227 25.35 12.9477 25.0413 13.5393 24.424C14.131 23.8067 14.4268 23.057 14.4268 22.175V18.9158H8.32684V22.175C8.32684 23.057 8.6185 23.8067 9.20184 24.424C9.78517 25.0413 10.506 25.35 11.3643 25.35ZM11.3518 15.5C11.628 15.5 11.8595 15.4066 12.0463 15.2198C12.2333 15.0329 12.3268 14.8013 12.3268 14.525C12.3268 14.2487 12.2333 14.0171 12.0463 13.8303C11.8595 13.6434 11.628 13.55 11.3518 13.55C11.0795 13.55 10.8489 13.6434 10.6601 13.8303C10.4713 14.0171 10.3768 14.2487 10.3768 14.525C10.3768 14.8013 10.4713 15.0329 10.6601 15.2198C10.8489 15.4066 11.0795 15.5 11.3518 15.5Z" fill="black"/>
</g>
<defs>
<clipPath id="clip0_13212_966">
<rect width="84" height="36" fill="white"/>
</clipPath>
</defs>
</svg>
