<svg width="38" height="38" viewBox="0 0 38 38" fill="none" xmlns="http://www.w3.org/2000/svg">
<path d="M19 0.5C29.2173 0.5 37.5 8.78273 37.5 19C37.5 29.2173 29.2173 37.5 19 37.5C8.78273 37.5 0.5 29.2173 0.5 19C0.5 8.78273 8.78273 0.5 19 0.5Z" fill="black"/>
<path d="M19 0.5C29.2173 0.5 37.5 8.78273 37.5 19C37.5 29.2173 29.2173 37.5 19 37.5C8.78273 37.5 0.5 29.2173 0.5 19C0.5 8.78273 8.78273 0.5 19 0.5Z" stroke="black"/>
<path d="M14.17 29.0407C13.6735 29.0407 13.2502 28.864 12.9002 28.5105C12.5502 28.157 12.3752 27.732 12.3752 27.2355C12.3752 26.739 12.552 26.3157 12.9055 25.9657C13.259 25.6157 13.684 25.4407 14.1805 25.4407C14.677 25.4407 15.1002 25.6175 15.4502 25.971C15.8002 26.3247 15.9752 26.7497 15.9752 27.246C15.9752 27.7425 15.7985 28.1657 15.445 28.5157C15.0915 28.8657 14.6665 29.0407 14.17 29.0407ZM24.17 29.0407C23.6735 29.0407 23.2502 28.864 22.9002 28.5105C22.5502 28.157 22.3752 27.732 22.3752 27.2355C22.3752 26.739 22.552 26.3157 22.9055 25.9657C23.259 25.6157 23.684 25.4407 24.1805 25.4407C24.677 25.4407 25.1002 25.6175 25.4502 25.971C25.8002 26.3247 25.9752 26.7497 25.9752 27.246C25.9752 27.7425 25.7985 28.1657 25.445 28.5157C25.0915 28.8657 24.6665 29.0407 24.17 29.0407ZM12.9887 12.5407L15.6372 18.0375H22.8192L25.8247 12.5407H12.9887ZM12.167 10.9092H26.7205C27.156 10.9092 27.4873 11.1062 27.7145 11.5C27.9416 11.8938 27.9432 12.2897 27.7192 12.6875L24.446 18.5892C24.2546 18.9137 24.0087 19.1758 23.7082 19.3755C23.4079 19.5752 23.0752 19.675 22.7102 19.675H15.178L13.8197 22.2092H25.2252C25.4564 22.2092 25.6501 22.2877 25.8065 22.4447C25.9628 22.6016 26.041 22.7961 26.041 23.0282C26.041 23.2602 25.9628 23.4537 25.8065 23.6085C25.6501 23.7633 25.4564 23.8407 25.2252 23.8407H13.9252C13.1934 23.8407 12.6673 23.5955 12.347 23.105C12.0266 22.6143 12.0328 22.0674 12.3655 21.4642L13.9475 18.55L10.1835 10.5657H9.02522C8.79406 10.5657 8.60031 10.4872 8.44397 10.3302C8.28764 10.1734 8.20947 9.9789 8.20947 9.74673C8.20947 9.51473 8.28764 9.32132 8.44397 9.16648C8.60031 9.01165 8.79406 8.93423 9.02522 8.93423H10.7012C10.8712 8.93423 11.0254 8.97598 11.1637 9.05948C11.3021 9.14282 11.4028 9.26065 11.466 9.41299L12.167 10.9092Z" fill="white"/>
</svg>
